<?xml version="1.0" standalone="no"?>
<!DOCTYPE svg PUBLIC "-//W3C//DTD SVG 20010904//EN"
 "http://www.w3.org/TR/2001/REC-SVG-20010904/DTD/svg10.dtd">
<svg version="1.0" xmlns="http://www.w3.org/2000/svg"
 width="16.000000pt" height="16.000000pt" viewBox="0 0 16.000000 16.000000"
 preserveAspectRatio="xMidYMid meet">
<metadata>
Created by potrace 1.11, written by Peter Selinger 2001-2013
</metadata>
<g transform="translate(0.000000,16.000000) scale(0.002286,-0.002286)"
fill="#000000" stroke="none">
<path d="M3230 6627 c-3 -3 -43 -8 -90 -11 -47 -4 -92 -9 -100 -11 -8 -2 -37
-6 -65 -10 -156 -19 -539 -123 -650 -175 -11 -5 -45 -19 -75 -30 -222 -86
-554 -289 -775 -476 -153 -128 -239 -214 -390 -385 -184 -208 -401 -561 -526
-854 -72 -170 -165 -462 -194 -611 -14 -74 -46 -263 -50 -299 -3 -22 -7 -56
-9 -75 -3 -19 -8 -86 -11 -147 l-7 -113 68 -1 c38 -1 85 -2 104 -4 19 -1 100
-6 180 -9 80 -4 165 -9 190 -11 116 -8 182 -7 189 3 7 12 122 -8 294 -53 450
-118 870 -333 1221 -627 85 -70 264 -243 311 -299 11 -13 41 -49 66 -79 47
-55 199 -266 199 -275 0 -2 15 -28 34 -57 108 -169 222 -444 280 -674 47 -187
78 -413 57 -415 -6 -1 -15 -3 -21 -4 -5 -1 -15 -3 -21 -4 -5 0 -8 -4 -6 -9 3
-4 8 -74 11 -157 3 -82 9 -215 12 -295 3 -80 7 -172 8 -204 l1 -60 55 3 c225
11 423 35 575 71 28 6 61 14 75 16 50 9 241 65 332 98 289 103 567 249 812
424 224 161 490 417 646 622 19 25 37 47 40 50 24 23 200 293 200 307 0 7 3
13 8 13 4 0 12 10 18 23 6 12 41 81 76 152 79 156 185 423 203 509 3 10 9 33
15 51 6 18 12 41 15 51 2 10 10 48 19 84 8 36 18 81 21 100 3 19 10 53 15 75
5 22 12 67 15 100 4 33 9 62 10 65 18 30 26 542 12 691 -74 771 -393 1456
-928 1989 -144 144 -150 149 -287 258 -442 352 -997 586 -1552 657 -25 3 -61
8 -80 11 -43 7 -544 17 -550 11z m411 -732 c53 -3 105 -7 115 -9 11 -2 39 -7
64 -11 574 -87 1127 -399 1501 -845 72 -85 167 -215 181 -246 6 -13 15 -24 20
-24 4 0 8 -4 8 -10 0 -5 15 -33 33 -62 137 -215 274 -588 311 -843 4 -23 8
-50 10 -62 31 -161 29 -602 -5 -776 -5 -28 -12 -64 -14 -79 -36 -199 -112
-424 -214 -628 -70 -140 -69 -139 -157 -270 -102 -153 -182 -249 -319 -385
-231 -229 -495 -404 -807 -533 -125 -52 -158 -60 -159 -35 -1 19 -2 30 -13
108 -15 103 -18 123 -43 235 -257 1184 -1176 2158 -2424 2570 -173 57 -433
123 -539 137 -19 2 -39 8 -43 12 -15 15 69 234 157 411 68 136 174 306 249
400 15 19 31 40 35 45 39 58 170 196 284 301 319 296 799 524 1223 580 22 3
51 7 65 10 14 2 70 7 125 10 55 4 101 7 102 8 4 3 149 -2 254 -9z"/>
</g>
</svg>
