<?xml version="1.0" encoding="utf-8"?>
<!-- Generator: Adobe Illustrator 19.2.0, SVG Export Plug-In . SVG Version: 6.00 Build 0)  -->
<svg version="1.1" id="Слой_1" xmlns="http://www.w3.org/2000/svg" xmlns:xlink="http://www.w3.org/1999/xlink" x="0px" y="0px"
	 viewBox="0 0 153.4 28.3" style="enable-background:new 0 0 153.4 28.3;" xml:space="preserve">
<style type="text/css">
	.st0{fill:none;stroke:#003F01;stroke-width:3;stroke-miterlimit:10;}
	.st1{fill:none;stroke:#00D442;stroke-width:3;stroke-miterlimit:10;}
	.st2{fill:none;stroke:#FFFFFF;stroke-width:3;stroke-miterlimit:10;}
	.st3{fill:#FFFFFF;}
</style>
<g>
	<path class="st2" d="M4.1,14.4C4.4,7.9,9.3,2.7,15.8,2.7s11.7,5.2,11.7,11.7S22.2,26,15.8,26.1"/>
	<path class="st2" d="M3.3,12.8c7.8,0,14.1,5.7,14.1,12.6"/>
</g>
<g>
	<path class="st3" d="M55.8,20.8h-6.5l-0.9,3.3h-5.8l7-19.8h6.2l7,19.8h-6L55.8,20.8z M54.7,16.5l-2-7.1l-2,7.1H54.7z"/>
	<path class="st3" d="M64.2,9.7H69v2.3c0.7-1,1.4-1.6,2.2-2.1c0.7-0.4,1.6-0.6,2.7-0.6c1.4,0,2.5,0.5,3.3,1.4
		c0.8,0.9,1.2,2.3,1.2,4.2v9.1h-5.2v-7.9c0-0.9-0.2-1.5-0.5-1.9c-0.3-0.4-0.8-0.6-1.3-0.6c-0.6,0-1.1,0.3-1.5,0.8
		c-0.4,0.5-0.6,1.4-0.6,2.7v6.9h-5.1V9.7z"/>
	<path class="st3" d="M81.5,4.3h5.1v7.3c0.7-0.8,1.4-1.3,2.1-1.7c0.7-0.3,1.5-0.5,2.5-0.5c1.4,0,2.5,0.5,3.3,1.4
		c0.8,0.9,1.2,2.3,1.2,4.2v9.1h-5.2v-7.9c0-0.9-0.2-1.5-0.5-1.9c-0.3-0.4-0.8-0.6-1.3-0.6c-0.6,0-1.1,0.3-1.5,0.8
		c-0.4,0.5-0.6,1.4-0.6,2.7v6.9h-5.1V4.3z"/>
	<path class="st3" d="M98.9,4.3h5.1V8h-5.1V4.3z M98.9,9.7h5.1v14.4h-5.1V9.7z"/>
	<path class="st3" d="M106.7,16.9c0-2.2,0.7-4,2.1-5.4c1.4-1.4,3.2-2.1,5.6-2.1c2.7,0,4.7,0.8,6.1,2.5c1.1,1.3,1.7,3,1.7,5
		c0,2.2-0.7,4-2.1,5.4c-1.4,1.4-3.3,2.1-5.7,2.1c-2.2,0-3.9-0.6-5.2-1.8C107.6,21.2,106.7,19.3,106.7,16.9z M111.9,16.9
		c0,1.3,0.2,2.2,0.7,2.8c0.5,0.6,1.1,0.9,1.8,0.9c0.7,0,1.3-0.3,1.8-0.9c0.5-0.6,0.7-1.6,0.7-2.9c0-1.2-0.2-2.2-0.7-2.8
		c-0.5-0.6-1.1-0.9-1.8-0.9c-0.8,0-1.4,0.3-1.9,0.9C112.1,14.7,111.9,15.7,111.9,16.9z"/>
	<path class="st3" d="M124.7,9.7h4.8v2.4c0.5-1,0.9-1.7,1.4-2.1c0.5-0.4,1.1-0.6,1.8-0.6c0.8,0,1.6,0.3,2.5,0.8l-1.6,3.9
		c-0.6-0.3-1.1-0.4-1.4-0.4c-0.7,0-1.2,0.3-1.6,0.9c-0.5,0.8-0.8,2.4-0.8,4.7v4.8h-5.2V9.7z"/>
	<path class="st3" d="M141.2,14.4l-4.9-0.6c0.2-0.9,0.5-1.6,0.8-2.2c0.3-0.5,0.9-1,1.5-1.4c0.5-0.3,1.1-0.5,1.9-0.6
		c0.8-0.2,1.7-0.2,2.7-0.2c1.5,0,2.8,0.1,3.7,0.3c0.9,0.2,1.7,0.6,2.3,1.2c0.4,0.4,0.8,1,1,1.7c0.3,0.7,0.4,1.5,0.4,2.1V21
		c0,0.7,0,1.2,0.1,1.6c0.1,0.4,0.3,0.9,0.5,1.5h-4.8c-0.2-0.4-0.3-0.7-0.4-0.8c-0.1-0.2-0.1-0.5-0.2-0.9c-0.7,0.7-1.3,1.2-2,1.5
		c-0.9,0.4-2,0.6-3.2,0.6c-1.6,0-2.8-0.4-3.6-1.2s-1.2-1.8-1.2-2.9c0-1.1,0.3-2,0.9-2.7c0.6-0.7,1.7-1.2,3.3-1.6
		c1.9-0.4,3.2-0.7,3.8-0.9c0.6-0.2,1.2-0.4,1.8-0.7c0-0.7-0.1-1.2-0.4-1.4c-0.3-0.3-0.7-0.4-1.4-0.4c-0.8,0-1.5,0.1-1.9,0.4
		C141.7,13.3,141.4,13.8,141.2,14.4z M145.7,17.3c-0.7,0.3-1.4,0.5-2.2,0.7c-1,0.3-1.7,0.6-2,0.9c-0.3,0.3-0.4,0.6-0.4,1
		c0,0.4,0.1,0.8,0.4,1.1c0.3,0.3,0.7,0.4,1.2,0.4c0.6,0,1.1-0.1,1.6-0.4c0.5-0.3,0.8-0.7,1-1.1c0.2-0.4,0.3-1,0.3-1.7V17.3z"/>
</g>
</svg>
